<!-- Generated by IcoMoon.io -->
<svg version="1.1" xmlns="http://www.w3.org/2000/svg" width="24" height="24" viewBox="0 0 24 24">
<title>icon-link</title>
<path d="M14.454 5.275c0.818-0.383 1.673-0.535 2.564-0.454s1.7 0.377 2.427 0.89c0.727 0.513 1.284 1.186 1.67 2.018s0.542 1.694 0.465 2.583c-0.076 0.889-0.37 1.703-0.882 2.44s-1.176 1.298-1.994 1.681l-3.681 1.725-0.814-1.753 3.681-1.725c0.497-0.233 0.905-0.58 1.224-1.040s0.506-0.97 0.558-1.528c0.052-0.558-0.037-1.085-0.267-1.582s-0.575-0.904-1.034-1.223c-0.459-0.318-0.967-0.503-1.524-0.553s-1.084 0.041-1.58 0.274l-3.681 1.725-0.814-1.753 3.681-1.725zM8.779 14.602l-0.834-1.797 7.275-3.408 0.834 1.797-7.275 3.408zM4.593 15.47c0.231 0.497 0.575 0.904 1.034 1.223s0.967 0.503 1.524 0.553c0.557 0.050 1.084-0.041 1.58-0.274l3.681-1.725 0.814 1.753-3.681 1.725c-0.818 0.383-1.673 0.535-2.564 0.454s-1.7-0.377-2.427-0.89c-0.727-0.513-1.284-1.186-1.67-2.018s-0.541-1.694-0.465-2.583c0.076-0.889 0.37-1.703 0.882-2.44s1.176-1.298 1.994-1.681l3.681-1.725 0.814 1.753-3.681 1.725c-0.497 0.233-0.905 0.58-1.224 1.040s-0.506 0.97-0.558 1.528c-0.052 0.558 0.037 1.085 0.267 1.582z"></path>
</svg>
